<?xml version="1.0" standalone="no"?>
<!DOCTYPE svg PUBLIC "-//W3C//DTD SVG 20010904//EN"
 "http://www.w3.org/TR/2001/REC-SVG-20010904/DTD/svg10.dtd">
<svg version="1.0" xmlns="http://www.w3.org/2000/svg"
 width="38.000000pt" height="38.000000pt" viewBox="0 0 38.000000 38.000000"
 preserveAspectRatio="xMidYMid meet">
<metadata>
Created by potrace 1.14, written by Peter Selinger 2001-2017
</metadata>
<g transform="translate(0.000000,38.000000) scale(0.100000,-0.100000)"
fill="#000000" stroke="none">
<path d="M1357 1793 c-4 -3 -7 -166 -7 -361 l0 -356 -35 41 c-139 162 -415
191 -611 65 -105 -68 -187 -182 -220 -307 -21 -78 -18 -231 6 -309 58 -185
221 -327 412 -357 234 -36 468 81 568 285 60 121 60 118 60 739 l0 567 -83 0
c-46 0 -87 -3 -90 -7z"/>
</g>
</svg>
